<?xml version="1.0" encoding="UTF-8"?>
<svg version="1.1" xmlns="http://www.w3.org/2000/svg" width="32" height="32">
<path d="M0 0 C10.56 0 21.12 0 32 0 C32 10.56 32 21.12 32 32 C21.44 32 10.88 32 0 32 C0 21.44 0 10.88 0 0 Z " fill="#FBFBFB" transform="translate(0,0)"/>
<path d="M0 0 C0.12375 0.928125 0.12375 0.928125 0.25 1.875 C0.78648121 4.15723303 0.78648121 4.15723303 2.875 5 C3.57625 5.33 4.2775 5.66 5 6 C9.17222703 10.79033473 9.29056217 14.89819453 9 21 C8.34 21.66 7.68 22.32 7 23 C6.34 21.68 5.68 20.36 5 19 C4.7525 19.61875 4.505 20.2375 4.25 20.875 C2.72778828 23.46275992 1.83222025 24.05592658 -1 25 C-4.88433181 25.32369432 -7.77205762 25.30567313 -11 23 C-12.90378868 20.46161509 -13.01222355 19.19557676 -12.8125 16 C-11.98463462 12.9432663 -11.23118509 11.23118509 -9 9 C-8.01 9 -7.02 9 -6 9 C-6.66 10.65 -7.32 12.3 -8 14 C-7.01 14 -6.02 14 -5 14 C-5.33 12.02 -5.66 10.04 -6 8 C-8.62791446 8.36247096 -9.77739043 8.76454757 -11.625 10.71875 C-13.28250445 13.46870056 -13.31303482 15.06978456 -13.1875 18.25 C-13.14689453 19.58804687 -13.14689453 19.58804687 -13.10546875 20.953125 C-13.05326172 21.96632813 -13.05326172 21.96632813 -13 23 C-14.32 22.67 -15.64 22.34 -17 22 C-17.5392941 15.39364724 -16.96773391 11.40052671 -13 6 C-10.75 4.5625 -10.75 4.5625 -9 4 C-9 3.34 -9 2.68 -9 2 C-5.5647952 -0.29013653 -4.014669 -0.17842973 0 0 Z " fill="#A3A2B1" transform="translate(20,3)"/>
<path d="M0 0 C0.33 0.66 0.66 1.32 1 2 C1.61875 2.28875 2.2375 2.5775 2.875 2.875 C6.43638154 4.76043728 7.75017975 7.25053925 9 11 C9.23188622 13.72331488 9.13093368 16.25039269 9 19 C8.34 19.66 7.68 20.32 7 21 C5.06826897 19.06826897 5.36609741 15.60844406 5 13 C4.67 12.34 4.34 11.68 4 11 C1.69 11.33 -0.62 11.66 -3 12 C-3.34833144 7.12335991 -2.41685712 4.22949995 0 0 Z " fill="#CECDD3" transform="translate(20,5)"/>
<path d="M0 0 C0.66 0.33 1.32 0.66 2 1 C2 2.32 2 3.64 2 5 C-0.4375 7.125 -0.4375 7.125 -3 9 C-4.26237731 11.52475462 -4.09856404 13.31200466 -4.0625 16.125 C-4.04896484 17.49011719 -4.04896484 17.49011719 -4.03515625 18.8828125 C-4.02355469 19.58148437 -4.01195312 20.28015625 -4 21 C-5.32 20.67 -6.64 20.34 -8 20 C-8.5392941 13.39364724 -7.96773391 9.40052671 -4 4 C-1.75 2.5625 -1.75 2.5625 0 2 C0 1.34 0 0.68 0 0 Z " fill="#CAC9D5" transform="translate(11,5)"/>
<path d="M0 0 C0.94875 0.04125 1.8975 0.0825 2.875 0.125 C2 7 2 7 0.875 8.125 C0.50739269 10.45317964 0.17258419 12.7868385 -0.125 15.125 C-0.785 15.125 -1.445 15.125 -2.125 15.125 C-2.24875 14.09375 -2.3725 13.0625 -2.5 12 C-3.06389814 8.50383154 -3.91182059 5.44102373 -5.125 2.125 C-3.125 0.125 -3.125 0.125 0 0 Z " fill="#8888A0" transform="translate(17.125,2.875)"/>
<path d="M0 0 C2.65354511 0.97296654 3.79877896 1.65792423 5.25 4.125 C6.24828553 7.95176118 6.2595331 11.04212025 6 15 C5.34 15.66 4.68 16.32 4 17 C2.47436733 15.47436733 2.77417609 13.93293162 2.625 11.8125 C2.22035165 7.65987918 1.14043985 4.62944149 -1 1 C-0.67 0.67 -0.34 0.34 0 0 Z " fill="#C4C4D0" transform="translate(23,9)"/>
<path d="M0 0 C0.99 0.33 1.98 0.66 3 1 C3 1.66 3 2.32 3 3 C3.99 3.33 4.98 3.66 6 4 C5.01 5.485 5.01 5.485 4 7 C1 7.375 1 7.375 -2 7 C-2.66 6.01 -3.32 5.02 -4 4 C-3.01 3.67 -2.02 3.34 -1 3 C-0.67 2.01 -0.34 1.02 0 0 Z " fill="#CAC8CE" transform="translate(15,21)"/>
<path d="M0 0 C0.875 2.125 0.875 2.125 1 4 C-0.9375 3.625 -0.9375 3.625 -3 3 C-3.33 2.34 -3.66 1.68 -4 1 C-6.12364481 0.77390663 -6.12364481 0.77390663 -7.625 2.5 C-8.07875 2.995 -8.5325 3.49 -9 4 C-9.66 3.67 -10.32 3.34 -11 3 C-10 0 -10 0 -8.3125 -1.3125 C-4.95355602 -2.31110497 -3.09468552 -1.51295736 0 0 Z " fill="#7C7B96" transform="translate(21,21)"/>
<path d="M0 0 C1.32 0.33 2.64 0.66 4 1 C4 2.98 4 4.96 4 7 C3.01 7 2.02 7 1 7 C1.66 5.35 2.32 3.7 3 2 C-0.36720387 3.39332574 -1.9859524 4.9789286 -4 8 C-4.33 7.34 -4.66 6.68 -5 6 C-3.35 4.02 -1.7 2.04 0 0 Z " fill="#E7E6EA" transform="translate(11,10)"/>
<path d="M0 0 C0.33 0.66 0.66 1.32 1 2 C1.99 2.33 2.98 2.66 4 3 C3.67 3.99 3.34 4.98 3 6 C3.87483915 8.16715557 3.87483915 8.16715557 5 10 C2.53199953 8.84826645 0.95216435 7.95216435 -1 6 C-1.1875 3.4375 -1.1875 3.4375 -1 1 C-0.67 0.67 -0.34 0.34 0 0 Z " fill="#E1E0E7" transform="translate(20,5)"/>
<path d="M0 0 C0.33 0 0.66 0 1 0 C1.33 3.3 1.66 6.6 2 10 C1.01 10 0.02 10 -1 10 C-1.02689216 8.52093108 -1.04634621 7.04172517 -1.0625 5.5625 C-1.07410156 4.73878906 -1.08570313 3.91507813 -1.09765625 3.06640625 C-1 1 -1 1 0 0 Z " fill="#BFBFCD" transform="translate(5,16)"/>
<path d="M0 0 C0 1.65 0 3.3 0 5 C-0.99 5.495 -0.99 5.495 -2 6 C-2 5.34 -2 4.68 -2 4 C-3.32 3.67 -4.64 3.34 -6 3 C-2.25 0 -2.25 0 0 0 Z " fill="#E1E1E2" transform="translate(23,17)"/>
<path d="M0 0 C1.98 0.66 3.96 1.32 6 2 C5.67 2.66 5.34 3.32 5 4 C4.01 4 3.02 4 2 4 C1.67 4.66 1.34 5.32 1 6 C0 5 0 5 -0.0625 2.4375 C-0.041875 1.633125 -0.02125 0.82875 0 0 Z " fill="#E1E0E2" transform="translate(9,17)"/>
<path d="M0 0 C0.99 0 1.98 0 3 0 C2.67 2.31 2.34 4.62 2 7 C1.34 6.67 0.68 6.34 0 6 C0 4.02 0 2.04 0 0 Z " fill="#CACAD5" transform="translate(26,19)"/>
<path d="M0 0 C0.99 0.33 1.98 0.66 3 1 C3 2.32 3 3.64 3 5 C1.68 5 0.36 5 -1 5 C-0.67 3.35 -0.34 1.7 0 0 Z " fill="#4B4A70" transform="translate(15,4)"/>
</svg>
